<svg width="14" height="14" viewBox="0 0 14 14" fill="none" xmlns="http://www.w3.org/2000/svg">
<g clip-path="url(#clip0_72_5008)">
<path d="M6.9978 11.663H7.00363" stroke="#885CF6" stroke-width="1.16629" stroke-linecap="round" stroke-linejoin="round"/>
<path d="M4.95679 9.58055C5.50182 9.04631 6.2346 8.74707 6.9978 8.74707C7.761 8.74707 8.49377 9.04631 9.03881 9.58055" stroke="#885CF6" stroke-width="1.16629" stroke-linecap="round" stroke-linejoin="round"/>
<path d="M2.91577 7.49872C3.74269 6.68809 4.79222 6.14201 5.93064 5.93005" stroke="#885CF6" stroke-width="1.16629" stroke-linecap="round" stroke-linejoin="round"/>
<path d="M11.0798 7.49873C10.7287 7.15453 10.3354 6.85611 9.90942 6.6106" stroke="#885CF6" stroke-width="1.16629" stroke-linecap="round" stroke-linejoin="round"/>
<path d="M1.16626 5.14331C1.88738 4.49839 2.71048 3.97757 3.60206 3.60205" stroke="#885CF6" stroke-width="1.16629" stroke-linecap="round" stroke-linejoin="round"/>
<path d="M12.8293 5.1433C11.9398 4.34778 10.897 3.74267 9.76494 3.36519C8.6329 2.98771 7.4356 2.84585 6.2467 2.94834" stroke="#885CF6" stroke-width="1.16629" stroke-linecap="round" stroke-linejoin="round"/>
<path d="M1.16626 1.16626L12.8292 12.8292" stroke="#885CF6" stroke-width="1.16629" stroke-linecap="round" stroke-linejoin="round"/>
</g>
<defs>
<clipPath id="clip0_72_5008">
<rect width="13.9955" height="13.9955" fill="white"/>
</clipPath>
</defs>
</svg>
